<?xml version="1.0" standalone="no"?>
<!DOCTYPE svg PUBLIC "-//W3C//DTD SVG 20010904//EN"
 "http://www.w3.org/TR/2001/REC-SVG-20010904/DTD/svg10.dtd">
<svg version="1.0" xmlns="http://www.w3.org/2000/svg"
 width="248.000000pt" height="248.000000pt" viewBox="0 0 248.000000 248.000000"
 preserveAspectRatio="xMidYMid meet">
<metadata>
Created by potrace 1.14, written by Peter Selinger 2001-2017
</metadata>
<g transform="translate(0.000000,248.000000) scale(0.100000,-0.100000)"
fill="#000000" stroke="none">
<path d="M193 2469 c-43 -9 -70 -26 -100 -66 l-28 -36 -3 -1106 c-2 -744 0
-1118 7 -1142 13 -43 45 -81 87 -102 26 -14 86 -16 394 -17 349 0 364 0 406
21 29 13 52 35 68 62 l25 41 1 338 c0 186 -3 338 -7 339 -11 1 -185 1 -200 0
-10 -1 -13 -68 -13 -301 0 -165 -3 -301 -7 -301 -5 -1 -128 -2 -275 -3 l-268
-1 0 1042 0 1043 275 0 275 0 0 -278 0 -279 110 0 110 0 0 309 c0 288 -1 311
-20 348 -20 40 -58 72 -100 85 -29 9 -695 13 -737 4z"/>
<path d="M1776 2468 c-5 -14 -6 -24 -36 -193 -11 -60 -22 -121 -24 -135 -3
-14 -10 -52 -15 -85 -6 -33 -13 -69 -15 -80 -2 -11 -7 -40 -11 -65 -4 -25 -9
-54 -11 -65 -6 -28 -50 -273 -79 -440 -30 -167 -30 -171 -55 -305 -10 -58 -21
-121 -24 -140 -3 -19 -8 -46 -11 -60 -2 -14 -7 -36 -10 -50 -2 -14 -7 -41 -10
-60 -3 -19 -10 -60 -16 -90 -6 -30 -12 -64 -13 -75 -5 -27 -36 -204 -42 -235
-2 -14 -7 -40 -9 -57 -3 -18 -9 -52 -14 -75 -6 -24 -13 -64 -16 -90 -4 -25
-12 -71 -19 -102 -7 -30 -11 -58 -8 -61 3 -3 52 -5 109 -5 91 0 103 2 104 18
0 9 2 24 4 32 1 8 6 35 9 60 4 25 9 56 11 70 7 36 9 48 36 217 l23 153 247 0
246 0 13 -87 c6 -49 13 -95 15 -103 1 -8 5 -33 9 -55 3 -22 16 -100 27 -173
l22 -132 109 0 c59 0 108 1 108 3 0 2 -9 52 -20 113 -11 60 -22 120 -25 134
-37 215 -60 350 -81 465 -14 77 -32 178 -40 225 -8 47 -17 99 -20 115 -7 38
-32 182 -38 215 -3 14 -12 68 -21 120 -8 52 -20 115 -25 140 -5 25 -12 63 -15
84 -3 21 -7 48 -10 60 -5 24 -13 65 -21 116 -3 19 -12 73 -21 120 -8 47 -17
94 -19 105 -19 116 -40 233 -50 285 -2 14 -7 41 -10 60 -3 19 -9 53 -13 75
l-7 40 -107 3 c-81 2 -108 -1 -111 -10z m124 -505 c8 -49 15 -95 17 -103 1 -8
5 -33 8 -55 3 -22 7 -47 10 -55 2 -8 7 -35 10 -60 3 -25 8 -56 10 -70 3 -14 7
-41 10 -60 3 -19 7 -46 10 -60 2 -14 6 -41 9 -60 5 -33 42 -255 51 -310 3 -14
7 -45 11 -70 3 -25 7 -52 9 -60 2 -8 7 -37 11 -65 3 -27 12 -80 19 -117 9 -50
10 -68 1 -69 -6 -1 -102 -2 -213 -3 -194 -1 -208 1 -204 27 1 4 4 27 7 50 4
23 7 49 9 57 14 91 18 118 21 135 6 29 34 204 40 245 3 19 13 85 24 145 10 61
22 133 26 160 4 28 8 55 10 60 1 6 5 28 8 50 4 22 9 54 11 70 7 46 13 80 32
198 9 59 20 107 23 107 4 0 13 -39 20 -87z"/>
</g>
</svg>
